<svg xmlns="http://www.w3.org/2000/svg" viewBox="0 0 1672 1672" role="img" aria-label="Skewbiks.com logo"><path fill="#fcc408" d="m 824.25129,1397.064 c -5.15065,-9.7519 -22.60056,-42.2602 -38.77758,-72.2406 -16.17702,-29.9805 -29.09107,-55.0305 -28.69788,-55.6667 0.39319,-0.6362 35.77947,-1.1567 78.63619,-1.1567 68.04732,0 77.92131,0.2511 77.92131,1.9813 0,1.0897 -11.03651,22.2397 -24.52558,47 -13.48907,24.7603 -30.83082,56.6993 -38.53722,70.9756 -7.7064,14.2762 -14.60626,26.155 -15.33303,26.3973 -0.72677,0.2422 -5.53556,-7.5384 -10.68621,-17.2902 z m -66.91676,-140.7307 c 10e-4,-1.0581 8.5202,-17.5814 47.94798,-93 25.16777,-48.1416 28.82443,-54.5033 30.67194,-53.3614 2.79388,1.7267 76.41114,144.3579 75.37434,146.0355 -0.96739,1.5652 -153.99613,1.8892 -153.99426,0.3259 z M 739.55639,1237 c -3.25413,-6.05 -16.90458,-31.4 -30.33434,-56.3333 -42.05155,-78.0718 -43.70091,-81.2252 -43.04179,-82.2917 1.02865,-1.6644 160.48641,-1.3049 160.48641,0.3618 0,1.3394 -22.62413,44.8617 -60.43694,116.2632 -9.61188,18.15 -18.21428,33 -19.11644,33 -0.90217,0 -4.30277,-4.95 -7.5569,-11 z m 178.75988,5.3333 c -1.79875,-3.1166 -8.24783,-15.2666 -14.33128,-27 -21.54692,-41.5581 -55.14025,-105.389 -57.54069,-109.3333 -1.33888,-2.2 -2.43657,-5.05 -2.43932,-6.3333 -0.005,-2.1964 4.68779,-2.3334 79.91633,-2.3334 50.29393,0 80.21819,0.4803 80.72209,1.2957 0.4404,0.7126 -0.07,2.6626 -1.1336,4.3333 -1.9216,3.0177 -18.7221,33.9564 -54.50396,100.371 -23.97808,44.5057 -24.0584,44.6443 -25.87914,44.6564 -0.84699,0.01 -3.01168,-2.5397 -4.81043,-5.6564 z M 671.66667,1087.036 C 669.65,1086.7354 668,1086.1046 668,1085.6341 c 0,-0.4704 8.35952,-16.7806 18.5767,-36.2447 39.8342,-75.88581 58.55167,-110.05607 60.28547,-110.05607 0.99247,0 5.41399,6.9 9.82558,15.33334 33.79052,64.59493 46.46495,88.70673 56.16497,106.84833 6.131,11.4665 11.14728,21.739 11.14728,22.8278 0,1.4291 -2.13159,2.1995 -7.66667,2.7711 -8.42704,0.8702 -138.7759,0.8 -144.66666,-0.078 z M 851,1087.0355 c -2.81056,-0.3488 -4.33333,-1.2699 -4.33333,-2.6211 0,-1.1459 3.53054,-8.7579 7.84565,-16.9156 4.31511,-8.1577 16.69038,-31.6321 27.50061,-52.1655 30.4623,-57.86116 40.76407,-76.66663 41.99851,-76.66663 1.15641,0 8.05754,12.73663 53.0996,98.00003 22.53871,42.6651 25.11736,48.1852 23.20146,49.6666 -1.67097,1.292 -18.20854,1.6187 -73.56734,1.4533 -39.2765,-0.1173 -73.36183,-0.4554 -75.74516,-0.7511 z m 150.9807,-26.6628 c -5.74732,-10.8383 -23.8604,-44.881 -40.2513,-75.65033 -16.3909,-30.76936 -29.50421,-56.71936 -29.1407,-57.66666 0.53016,-1.38158 16.7623,-1.72238 82.0361,-1.72238 75.0785,0 81.3752,0.17205 81.3752,2.2234 0,1.22287 -9.4217,19.67287 -20.9372,41 -11.5154,21.32713 -29.6654,54.93327 -40.3333,74.68027 -10.6679,19.747 -20.0493,36.1147 -20.8477,36.3727 -0.7983,0.258 -6.1538,-8.3986 -11.9011,-19.237 z m -350.78052,10.638 C 594.55875,965.79874 574.59927,927.8544 575.30039,926.71997 c 0.57812,-0.93541 27.29793,-1.38664 82.11163,-1.38664 73.11378,0 81.25465,0.21075 81.25465,2.10347 0,1.1569 -6.08443,13.3069 -13.52095,27 -7.43652,13.69309 -22.41276,41.69653 -33.28054,62.2299 -10.86778,20.5333 -22.63335,42.7278 -26.14572,49.3212 -3.51237,6.5933 -7.28613,12.1481 -8.38613,12.344 -1.2452,0.2218 -3.55985,-2.5413 -6.13315,-7.3212 z m 176.42717,-4.6774 c -32.0955,-59.6173 -72.88558,-138.70947 -72.15015,-139.89941 0.3741,-0.6053 36.64477,-1.10056 80.60149,-1.10056 61.8044,0 79.92131,0.3671 79.92131,1.61942 0,1.36824 -20.18604,39.74929 -69.79925,132.71395 -5.18558,9.7166 -10.15353,17.6666 -11.03989,17.6666 -0.88636,0 -4.27644,-4.95 -7.53351,-11 z M 457.08333,405.75585 c 0.9625,-0.38516 2.1125,-0.33779 2.55556,0.10526 0.44305,0.44306 -0.34445,0.75819 -1.75,0.70029 -1.55326,-0.064 -1.8692,-0.37992 -0.80556,-0.80555 z m -90.75,-178.63889 c 0.91667,-0.36988 2.41667,-0.36988 3.33334,0 0.91666,0.36988 0.16666,0.67251 -1.66667,0.67251 -1.83333,0 -2.58333,-0.30263 -1.66667,-0.67251 z"/><path fill="#0b70e7" d="m 933.98154,569.30346 c -0.9602,-1.55362 74.24856,-150.93571 76.34236,-151.63364 1.3592,-0.45306 5.3084,6.17573 18.0665,30.32493 3.679,6.96378 15.0779,28.26378 25.3308,47.33333 10.253,19.06956 23.0601,42.89585 28.4603,52.94733 5.4002,10.05148 9.8185,19.20148 9.8185,20.33333 0,1.83174 -8.6378,2.05793 -78.588,2.05793 -52.10179,0 -78.8719,-0.45944 -79.43046,-1.36321 z m 180.68516,-0.79594 c 0,-1.18753 9.125,-19.03753 20.2777,-39.66667 11.1528,-20.62913 28.4028,-52.61584 38.3334,-71.08156 9.9305,-18.46572 19.2862,-35.22004 20.7903,-37.23181 2.7348,-3.65777 2.7348,-3.65777 13.8748,16.90738 6.127,11.31083 24.5463,45.0554 40.9319,74.98794 16.3855,29.93254 29.7919,55.28254 29.7919,56.33333 0,1.63778 -11.7066,1.91054 -82,1.91054 -74.6863,0 -82,-0.19258 -82,-2.15915 z m 171.6964,-10.67596 c -1.7665,-2.84069 -15.1081,-26.76489 -29.648,-53.16489 -14.5399,-26.4 -32.3489,-58.58704 -39.5756,-71.52675 -7.2267,-12.9397 -13.1395,-24.4897 -13.1395,-25.66666 0,-1.94205 7.8905,-2.13993 85.3333,-2.13993 73.625,0 85.3334,0.26507 85.3334,1.93185 0,1.06251 -9.0704,18.61251 -20.1564,39 -24.2332,44.56545 -34.5244,63.53155 -49.7763,91.73482 -6.3452,11.73333 -12.3518,22.15754 -13.3479,23.16489 -1.5319,1.54923 -2.3062,1.03539 -5.023,-3.33333 z m -185.3254,-0.1696 c -1.1186,-1.28075 -8.4949,-14.32863 -16.3917,-28.99529 -7.8969,-14.66667 -21.5465,-39.86667 -30.3324,-56 -31.3125,-57.49797 -34.4811,-63.64029 -33.7769,-65.47555 0.5988,-1.56028 13.8385,-1.85779 82.6761,-1.85779 54.7172,0 82.2449,0.45585 82.8107,1.37132 0.8542,1.38215 -1.4175,5.72107 -46.7512,89.29535 -13.7237,25.3 -26.6069,49.32072 -28.6294,53.37937 -4.7655,9.56298 -6.8882,11.39348 -9.6052,8.28259 z m -80.3549,-162.96915 c -0.4443,-0.71895 13.3899,-29.06895 30.7427,-63 41.7895,-81.71362 47.2185,-91.86422 48.6576,-90.9748 0.6702,0.41423 2.6494,3.27214 4.3981,6.3509 3.5875,6.3161 44.9261,82.85138 55.2355,102.26442 3.6997,6.96667 10.4351,19.43244 14.9676,27.70172 4.5324,8.26928 7.9015,15.91928 7.4867,17 -0.6526,1.70082 -11.5027,1.96495 -80.7171,1.96495 -50.8043,0 -80.2578,-0.47667 -80.7711,-1.30719 z m 190.6402,-0.0429 c -0.459,-0.74255 3.2367,-8.69255 8.2125,-17.66666 33.1606,-59.80688 74.1321,-132.5079 75.3135,-133.6384 1.8384,-1.75936 3.698,1.03425 14.5629,21.87792 18.1085,34.73991 27.4241,52.46143 45.9659,87.44391 10.4947,19.8 19.493,37.65 19.9963,39.66666 0.915,3.66667 0.915,3.66667 -81.1509,3.66667 -53.9516,0 -82.3517,-0.46252 -82.9002,-1.3501 z m -30.0749,-28.98323 c -8.2362,-15.21667 -19.2777,-35.46667 -24.5366,-45 -5.2589,-9.53334 -15.4884,-28.13334 -22.7321,-41.33334 -7.2438,-13.2 -16.0578,-29.08407 -19.5867,-35.29795 -3.529,-6.21387 -6.211,-11.91387 -5.9602,-12.66666 0.3044,-0.91339 30.2484,-1.48273 90.0118,-1.71144 79.0074,-0.30235 89.5557,-0.10632 89.5557,1.66432 0,1.10386 -8.9219,17.75809 -19.8263,37.00938 -20.1713,35.61131 -53.903,95.941 -64.114,114.66902 -3.0988,5.68333 -6.1297,10.33333 -6.7354,10.33333 -0.6057,0 -7.84,-12.45 -16.0762,-27.66666 z m 201.7857,15.40025 c -0.7721,-0.95347 -9.9426,-17.93359 -20.3788,-37.73359 -10.4362,-19.8 -23.9237,-45.3 -29.9722,-56.66666 -12.2802,-23.07738 -22.874,-43.10177 -27.3644,-51.72425 -1.6395,-3.14834 -2.6164,-6.0889 -2.1707,-6.53457 1.3279,-1.32786 162.1794,-0.95094 163.4756,0.38307 0.6853,0.70535 -2.8309,8.70831 -8.4399,19.20908 -36.7324,68.7685 -70.8018,131.60345 -72.1494,133.06692 -1.31,1.42255 -1.8483,1.42255 -3.0002,0 z"/><path fill="#ee2927" d="m 578.66667,569.84852 c 0,-1.18331 13.27199,-26.83331 29.49332,-57 16.22132,-30.16668 34.5781,-64.32959 40.79284,-75.91757 6.21473,-11.58798 11.89074,-20.87198 12.61333,-20.63112 2.04348,0.68116 78.7105,152.84051 77.77385,154.35604 C 738.79669,571.53497 710.8587,572 658.58798,572 c -72.65313,0 -79.92131,-0.19566 -79.92131,-2.15148 z M 392,569.1355 c 0,-1.57586 33.90591,-63.99511 75.94003,-139.80217 3.04968,-5.5 6.05492,-10.51414 6.67829,-11.14253 0.6265,-0.63154 2.23252,0.50706 3.59088,2.54578 5.4421,8.16786 80.16583,147.98995 79.58824,148.9245 C 556.71228,571.41691 392,570.89477 392,569.1355 Z m -13.49389,-10.80217 c -2.16481,-4.09042 -22.15993,-41.17819 -54.32998,-100.77347 -14.77749,-27.3754 -26.51794,-50.34014 -26.08989,-51.03274 1.05574,-1.70822 168.24022,-1.4896 169.29767,0.22138 0.91287,1.47705 0.26842,2.69437 -34.89674,65.91817 -14.68372,26.4 -31.74667,57.15 -37.91767,68.33333 -6.171,11.18333 -11.95252,20.33333 -12.84784,20.33333 -0.89531,0 -2.34231,-1.35 -3.21555,-3 z m 178.9119,-15.294 C 551.99748,532.93437 539.0598,509.06667 528.66761,490 c -33.31796,-61.12881 -43.33428,-80.18688 -43.33428,-82.4522 0,-2.0403 6.60657,-2.21447 84,-2.21447 70.88416,0 84,0.28982 84,1.85614 0,1.02087 -10.42787,20.97087 -23.17304,44.33333 -12.74517,23.36246 -31.27038,57.4772 -41.16713,75.81053 -9.89674,18.33334 -18.83233,33.50104 -19.85686,33.706 -1.18526,0.23712 -5.44742,-6.30982 -11.71829,-18 z M 296,393.82236 c 0,-2.01054 31.46589,-62.08117 60.66948,-115.82236 6.77453,-12.46667 13.90541,-25.81667 15.84639,-29.66667 1.94098,-3.85 4.06765,-7 4.72593,-7 0.65829,0 2.64175,2.55 4.4077,5.66667 1.76595,3.11667 17.47214,31.16667 34.90265,62.33333 17.43051,31.16667 35.23715,62.87362 39.57032,70.45989 4.33317,7.58627 7.54286,14.33627 7.13265,15 C 462.82293,395.49252 427.49911,396 379.25464,396 303.12099,396 296,395.81374 296,393.82236 Z m 192.68136,0.86808 c -0.44515,-0.72026 14.65042,-29.97026 33.5457,-65 18.89529,-35.02974 37.37408,-69.35369 41.064,-76.27545 3.68992,-6.92175 7.34318,-12.78317 8.11836,-13.02536 1.08202,-0.33806 52.91345,98.51455 75.80038,144.56605 C 653.2438,397.09689 660.9042,396 570.07869,396 c -51.31182,0 -80.882,-0.47574 -81.39733,-1.30956 z m -26.7514,-26.95143 c -7.13313,-12.68979 -22.57817,-40.17234 -34.32231,-61.07234 -11.74414,-20.9 -24.4826,-43.4 -28.30768,-50 C 389.36985,239.53273 385.11861,230.75946 386.0309,229.28334 386.5261,228.48209 419.86767,228 474.7872,228 c 77.14458,0 88.058,0.24715 88.73428,2.00951 0.42412,1.10524 -1.60178,6.05524 -4.502,11 -4.58398,7.81552 -33.04189,60.01896 -69.90235,128.22947 -6.11442,11.31477 -11.81479,20.79732 -12.66749,21.07234 -0.85745,0.27655 -7.34681,-9.81181 -14.51968,-22.57231 z m -176.74941,11.92766 c -9.47959,-17.99992 -68.58218,-127.48473 -74.17934,-137.41379 -4.79673,-8.50914 -6.91869,-13.5354 -6.07183,-14.38226 1.5064,-1.5064 164.95135,-1.1032 166.46384,0.41064 0.52089,0.52136 -2.3516,6.82136 -6.38332,14 -4.03172,7.17864 -15.28876,27.75207 -25.01565,45.71874 -9.72688,17.96667 -23.2123,42.86667 -29.96758,55.33333 -6.75528,12.46667 -14.25841,26.41667 -16.6736,31 -2.4152,4.58334 -4.88657,8.33334 -5.49193,8.33334 -0.60536,0 -1.81162,-1.35 -2.68059,-3 z"/><path fill="#1ea74c" d="m 576.69756,914.71666 c -0.99602,-1.6116 0.36392,-4.27774 32.92065,-64.54071 14.71092,-27.23011 30.61252,-56.70928 35.3369,-65.50928 11.2022,-20.8661 11.87031,-21.76879 14.26429,-19.27268 4.40211,4.58994 78.57685,147.44497 77.47971,149.22018 -1.13558,1.83741 -158.86686,1.93845 -160.00155,0.10249 z m 180.33893,-0.23345 c -1.42301,-0.87947 7.71629,-19.02723 51.27529,-101.81654 13.1185,-24.93334 24.66064,-46.15754 25.6492,-47.1649 2.35701,-2.40183 3.81574,-0.0448 25.06395,40.49823 46.22378,88.19814 55.4964,106.67859 54.1836,107.98851 -1.49058,1.4873 -153.78541,1.96972 -156.17204,0.4947 z M 939,914.95606 c -3.11667,-0.2435 -5.66667,-0.91068 -5.66667,-1.48264 0,-0.57195 14.15138,-27.68746 31.44752,-60.25667 C 982.07698,820.64754 999.55274,787.7 1003.6159,780 c 8.8021,-16.68072 9.1733,-17.14955 11.5687,-14.60952 1.7827,1.89026 19.9254,35.3933 60.054,110.89816 10.8024,20.32542 19.2415,37.60126 18.7535,38.39075 -0.6206,1.00421 -23.1837,1.32788 -75.1063,1.07741 -40.82051,-0.19691 -76.76913,-0.55725 -79.8858,-0.80074 z m 163.9965,-10.52 c -1.4656,-2.07317 -14.5123,-25.96939 -28.9927,-53.10273 C 1059.5234,824.2 1044.2346,795.7 1040.0286,788 c -13.8156,-25.29297 -17.6246,-33.16292 -16.742,-34.59105 1.1909,-1.92697 164.205,-1.97699 165.3954,-0.0507 0.4617,0.74701 -6.793,15.59701 -16.1215,33 -28.1972,52.60364 -64.714,119.57186 -65.8402,120.74453 -0.5825,0.6065 -2.2582,-0.5935 -3.7238,-2.66667 z m -543.80459,-6.76939 c -2.71623,-4.95 -8.06604,-14.7 -11.88847,-21.66667 -6.78646,-12.36881 -36.09781,-66.81562 -55.20313,-102.54166 -5.25748,-9.83125 -9.24967,-18.68125 -8.87153,-19.66667 C 483.79407,752.31855 498.48897,752 565.87946,752 c 52.73658,0 82.25451,0.47141 82.78022,1.32203 0.44938,0.72711 -4.83711,11.67711 -11.74776,24.33333 -14.1578,25.92871 -54.76335,101.25597 -63.61461,118.01131 -3.196,6.05 -6.56599,11 -7.48886,11 -0.92287,0 -3.90031,-4.05 -6.61654,-9 z m 180.39848,-6 c -30.14455,-56.36802 -71.6138,-137.21678 -70.94051,-138.30617 1.15102,-1.8624 156.20144,-1.88577 157.35225,-0.0237 0.45439,0.73522 -8.16621,18.28522 -19.1569,39 -10.9907,20.71477 -24.37706,46.06825 -29.74749,56.34108 -23.44424,44.84532 -28.52401,53.97754 -30.02791,53.983 -0.87826,0.003 -4.24401,-4.94419 -7.47944,-10.99419 z m 182.07988,9.37774 c -0.76814,-0.94109 -8.13135,-14.61108 -16.36269,-30.37774 -8.23134,-15.76667 -22.91754,-43.66667 -32.63599,-62 -23.30847,-43.97015 -28.7094,-54.85108 -27.71825,-55.84223 1.23014,-1.23014 157.44896,-0.99752 158.21106,0.2356 0.3604,0.58302 -7.62965,16.63302 -17.75554,35.66666 -10.12588,19.03365 -27.71795,52.28419 -39.09348,73.89009 -11.37552,21.6059 -21.26006,39.47588 -21.96563,39.71107 -0.70557,0.23519 -1.91134,-0.34236 -2.67948,-1.28345 z M 485.33333,740.83094 c 0,-2.88076 77.20279,-145.08582 80.76894,-148.7738 1.18288,-1.22328 2.32421,-1.47019 3.0816,-0.66666 0.6616,0.7019 7.47781,12.97619 15.14713,27.27619 21.87071,40.77952 48.41059,90.80945 51.27974,96.66666 1.43689,2.93334 4.87273,9.39312 7.6352,14.35508 2.76247,4.96195 4.68107,9.91195 4.26355,11 -0.65951,1.71864 -11.35093,1.97826 -81.46764,1.97826 -67.64207,0 -80.70852,-0.2972 -80.70852,-1.83573 z m 184.80051,0.71895 c -0.37961,-0.61423 13.73301,-28.36423 31.36138,-61.66667 44.55019,-84.1615 45.24358,-85.41473 46.94479,-84.84766 2.18071,0.7269 74.57151,144.66109 73.57078,146.28032 -1.02856,1.66424 -150.85035,1.89508 -151.87695,0.23401 z m 179.19949,-1.08921 c 0,-2.35853 71.23686,-144.21879 73.54701,-146.46068 2.24366,-2.17736 -0.97178,-8.07259 63.26734,115.99544 8.35211,16.13082 15.18562,30.08082 15.18562,31 0,1.31987 -15.97815,1.67123 -75.99997,1.67123 -69.8207,0 -76,-0.17936 -76,-2.20599 z m 174.03317,0.92629 c -0.435,-0.70384 13.7456,-28.45384 31.5124,-61.66667 17.7668,-33.21283 35.6412,-66.63827 39.7209,-74.27875 4.0797,-7.64049 8.1027,-14.12015 8.94,-14.39926 1.6806,-0.56018 3.6047,2.6585 22.4924,37.62438 48.4543,89.70117 59.3011,110.18282 59.3011,111.97627 0,1.78709 -9.4232,2.02373 -80.5879,2.02373 -50.0354,0 -80.8879,-0.48516 -81.3789,-1.2797 z M 470.234,729 c -1.76646,-3.11667 -9.68957,-17.66667 -17.6069,-32.33333 -12.21981,-22.6369 -41.40045,-76.14525 -57.60465,-105.62927 -2.50767,-4.56277 -4.17817,-8.91277 -3.71223,-9.66667 0.56532,-0.9147 28.11564,-1.37073 82.81032,-1.37073 75.54439,0 82.0305,0.1755 82.82312,2.24105 0.52538,1.36909 -1.04354,5.64901 -4.03235,11 -2.69077,4.81742 -21.18894,38.60895 -41.10703,75.09228 -19.91808,36.48334 -36.69706,66.33334 -37.28662,66.33334 -0.58955,0 -2.5172,-2.55 -4.28366,-5.66667 z m 722.7966,0.83156 c -1.7661,-2.84069 -7.0148,-12.36489 -11.6636,-21.16489 -10.6997,-20.25369 -62.1435,-114.61095 -65.5102,-120.15738 C 1110.3063,579.365 1104.2261,580 1197.3333,580 c 64.6738,0 84,0.36994 84,1.6079 0,0.88435 -4.0011,8.83435 -8.8913,17.66667 -17.3964,31.4199 -28.1999,51.04423 -41.1377,74.72543 -25.291,46.29254 -31.5099,57.34876 -33.2787,59.16489 -1.5037,1.54384 -2.2884,1.02021 -4.995,-3.33333 z M 634.73024,688.37985 C 622.00579,664.3376 604.15258,630.71348 595.05646,613.65958 585.96033,596.60569 578.88689,582.05569 579.33771,581.32625 579.86649,580.47067 608.52064,580 660.07869,580 731.58511,580 740,580.21893 740,582.07927 c 0,2.39007 -10.55041,22.52531 -68.77412,131.25406 -5.30141,9.9 -10.47622,18.17093 -11.49959,18.37985 -1.22694,0.25047 -9.74051,-14.50872 -24.99605,-43.33333 z m 367.56366,27.34817 C 997.52463,706.71094 986.15024,685.23333 977.01745,668 c -9.13279,-17.23333 -23.03778,-43.47602 -30.89999,-58.31709 -7.8622,-14.84106 -13.91958,-27.59106 -13.46083,-28.33333 1.12585,-1.82167 158.86557,-1.86801 159.99107,-0.047 0.4427,0.71641 -9.1959,20.06641 -21.4192,43 -12.2232,22.93358 -27.6371,51.89742 -34.2529,64.36409 -18.208,34.31062 -22.8327,42.42267 -24.493,42.96258 -0.8345,0.2714 -5.4195,-6.88416 -10.1887,-15.90123 z"/></svg>
